<svg width="109" height="45" viewBox="0 0 109 45" fill="none" xmlns="http://www.w3.org/2000/svg">
<path d="M17.976 34V19.744H7.992V34H0.119995V0.735992H7.992V13.6H17.976V0.735992H25.848V34H17.976Z" fill="#141414"/>
<path d="M53.4487 34H46.8727L46.5367 30.784C44.6807 33.472 42.1047 34.816 38.8087 34.816C36.4727 34.816 34.6967 34.112 33.4807 32.704C32.2967 31.296 31.7047 29.328 31.7047 26.8V8.51199H39.2887V25.84C39.2887 27.088 39.4807 27.968 39.8647 28.48C40.2807 28.96 40.9047 29.2 41.7367 29.2C43.3367 29.2 44.7127 28.208 45.8647 26.224V8.51199H53.4487V34Z" fill="#141414"/>
<path d="M82.8855 9.99999C81.2215 10.672 78.7735 11.008 75.5415 11.008C77.2055 11.712 78.4215 12.576 79.1895 13.6C79.9575 14.624 80.3415 15.952 80.3415 17.584C80.3415 19.216 79.9095 20.688 79.0455 22C78.1815 23.28 76.9335 24.288 75.3015 25.024C73.7015 25.76 71.8135 26.128 69.6375 26.128C68.6135 26.128 67.6375 26.032 66.7095 25.84C66.4535 25.968 66.2455 26.176 66.0855 26.464C65.9575 26.72 65.8935 26.992 65.8935 27.28C65.8935 27.76 66.0695 28.144 66.4215 28.432C66.8055 28.688 67.5575 28.816 68.6775 28.816H72.5175C74.4695 28.816 76.1815 29.136 77.6535 29.776C79.1255 30.416 80.2615 31.296 81.0615 32.416C81.8615 33.536 82.2615 34.8 82.2615 36.208C82.2615 38.864 81.1095 40.928 78.8055 42.4C76.5335 43.904 73.2375 44.656 68.9175 44.656C65.8135 44.656 63.3655 44.32 61.5735 43.648C59.7815 43.008 58.5175 42.096 57.7815 40.912C57.0775 39.728 56.7255 38.24 56.7255 36.448H63.5415C63.5415 37.216 63.6855 37.824 63.9735 38.272C64.2935 38.72 64.8535 39.056 65.6535 39.28C66.4535 39.504 67.6055 39.616 69.1095 39.616C71.1895 39.616 72.6295 39.36 73.4295 38.848C74.2295 38.368 74.6295 37.664 74.6295 36.736C74.6295 35.968 74.3255 35.36 73.7175 34.912C73.1095 34.464 72.1975 34.24 70.9815 34.24H67.2855C64.6615 34.24 62.6935 33.776 61.3815 32.848C60.1015 31.888 59.4615 30.672 59.4615 29.2C59.4615 28.272 59.7335 27.376 60.2775 26.512C60.8215 25.616 61.5575 24.88 62.4855 24.304C60.8855 23.44 59.7175 22.432 58.9815 21.28C58.2775 20.096 57.9255 18.672 57.9255 17.008C57.9255 14.16 58.9495 11.904 60.9975 10.24C63.0455 8.54399 65.7495 7.69599 69.1095 7.69599C71.6695 7.75999 73.8295 7.50399 75.5895 6.92799C77.3815 6.35199 79.2215 5.50399 81.1095 4.38399L82.8855 9.99999ZM69.3015 12.688C68.1175 12.688 67.1735 13.072 66.4695 13.84C65.7975 14.576 65.4615 15.6 65.4615 16.912C65.4615 18.288 65.7975 19.36 66.4695 20.128C67.1735 20.864 68.1175 21.232 69.3015 21.232C70.5495 21.232 71.4935 20.864 72.1335 20.128C72.8055 19.392 73.1415 18.288 73.1415 16.816C73.1415 14.064 71.8615 12.688 69.3015 12.688Z" fill="#141414"/>
<path d="M95.8129 7.69599C99.7169 7.69599 102.773 8.89599 104.981 11.296C107.189 13.664 108.293 16.992 108.293 21.28C108.293 24 107.781 26.384 106.757 28.432C105.765 30.448 104.325 32.016 102.437 33.136C100.581 34.256 98.3729 34.816 95.8129 34.816C91.9409 34.816 88.8849 33.632 86.6449 31.264C84.4369 28.864 83.3329 25.52 83.3329 21.232C83.3329 18.512 83.8289 16.144 84.8209 14.128C85.8449 12.08 87.2849 10.496 89.1409 9.37599C91.0289 8.25599 93.2529 7.69599 95.8129 7.69599ZM95.8129 13.264C94.2769 13.264 93.1249 13.92 92.3569 15.232C91.5889 16.512 91.2049 18.512 91.2049 21.232C91.2049 24.016 91.5729 26.048 92.3089 27.328C93.0769 28.608 94.2449 29.248 95.8129 29.248C97.3489 29.248 98.5009 28.608 99.2689 27.328C100.037 26.016 100.421 24 100.421 21.28C100.421 18.496 100.037 16.464 99.2689 15.184C98.5329 13.904 97.3809 13.264 95.8129 13.264Z" fill="#141414"/>
</svg>
